<svg xmlns="http://www.w3.org/2000/svg" width="900" height="560" viewBox="0 0 900 560"><defs><radialGradient id="bg"><stop stop-color="#356d62"/><stop offset="1" stop-color="#143f38"/></radialGradient><linearGradient id="r"><stop stop-color="#d9efbc"/><stop offset="1" stop-color="#69b6a7"/></linearGradient></defs><rect width="900" height="560" fill="url(#bg)"/><g fill="none" stroke="#8ec3ad" opacity=".16"><circle cx="450" cy="280" r="200"/><circle cx="450" cy="280" r="150"/><path d="M0 280H900M450 0V560"/></g><g fill="none" stroke="url(#r)" stroke-width="13" stroke-linecap="round"><path d="M200 150 C60 240 360 300 200 405"/><path d="M280 150 C140 240 440 300 280 405"/><path d="M360 150 C220 240 520 300 360 405"/><path d="M440 150 C300 240 600 300 440 405"/><path d="M520 150 C380 240 680 300 520 405"/><path d="M600 150 C460 240 760 300 600 405"/></g><g fill="#edf5d6"><circle cx="200" cy="150" r="9"/><circle cx="600" cy="405" r="9"/><circle cx="318" cy="282" r="6"/><circle cx="575" cy="221" r="6"/></g><g fill="#d0e2d5" font-family="Arial,sans-serif" font-size="14" letter-spacing="3"><text x="40" y="49">SEQUENCE → FUNCTION</text><text x="40" y="518">sxLaep</text><text x="756" y="518">01 / ML</text></g></svg>